0
SECTION
2
HEADER
9
$INSUNITS
70
4
9
$ACADVER
1
AC1014
9
$HANDSEED
5
FFFF
0
ENDSEC
0
SECTION
2
TABLES
0
TABLE
2
VPORT
5
8
100
AcDbSymbolTable
0
ENDTAB
0
TABLE
2
LTYPE
5
5
100
AcDbSymbolTable
0
LTYPE
5
14
100
AcDbSymbolTableRecord
100
AcDbLinetypeTableRecord
2
BYBLOCK
70
0
0
LTYPE
5
15
100
AcDbSymbolTableRecord
100
AcDbLinetypeTableRecord
2
BYLAYER
70
0
0
LTYPE
5
16
100
AcDbSymbolTableRecord
100
AcDbLinetypeTableRecord
2
DASHED
70
0
3
Dashed __ __ __ __ __ __ __ __ __ __ __ __ __ _
72
65
73
2
40
0.75
49
0.5
74
0
49
-0.25
74
0
0
ENDTAB
0
TABLE
2
LAYER
5
2
100
AcDbSymbolTable
70
3
0
LAYER
5
50
100
AcDbSymbolTableRecord
100
AcDbLayerTableRecord
2
1
70
0
62
7
6
DASHED
0
LAYER
5
51
100
AcDbSymbolTableRecord
100
AcDbLayerTableRecord
2
0
70
0
62
7
6
CONTINUOUS
0
ENDTAB
0
TABLE
2
STYLE
5
3
100
AcDbSymbolTable
70
1
0
STYLE
5
11
100
AcDbSymbolTableRecord
100
AcDbTextStyleTableRecord
2
STANDARD
70
0
0
ENDTAB
0
TABLE
2
VIEW
5
6
100
AcDbSymbolTable
70
0
0
ENDTAB
0
TABLE
2
UCS
5
7
100
AcDbSymbolTable
70
0
0
ENDTAB
0
TABLE
2
APPID
5
9
100
AcDbSymbolTable
70
2
0
APPID
5
12
100
AcDbSymbolTableRecord
100
AcDbRegAppTableRecord
2
ACAD
70
0
0
ENDTAB
0
TABLE
2
DIMSTYLE
5
A
100
AcDbSymbolTable
70
1
0
ENDTAB
0
TABLE
2
BLOCK_RECORD
5
1
100
AcDbSymbolTable
70
1
0
BLOCK_RECORD
5
1F
100
AcDbSymbolTableRecord
100
AcDbBlockTableRecord
2
*MODEL_SPACE
0
BLOCK_RECORD
5
1B
100
AcDbSymbolTableRecord
100
AcDbBlockTableRecord
2
*PAPER_SPACE
0
ENDTAB
0
ENDSEC
0
SECTION
2
BLOCKS
0
BLOCK
5
20
100
AcDbEntity
100
AcDbBlockBegin
2
*MODEL_SPACE
0
ENDBLK
5
21
100
AcDbEntity
100
AcDbBlockEnd
0
BLOCK
5
1C
100
AcDbEntity
100
AcDbBlockBegin
2
*PAPER_SPACE
0
ENDBLK
5
1D
100
AcDbEntity
100
AcDbBlockEnd
0
ENDSEC
0
SECTION
2
ENTITIES
0
POINT
5
100
100
AcDbEntity
8
0
100
AcDbPoint
10
0
20
0
30
0
0
POINT
5
101
100
AcDbEntity
8
0
100
AcDbPoint
10
0
20
0
30
0
0
POINT
5
102
100
AcDbEntity
8
0
100
AcDbPoint
10
-72.499999999999986
20
72.500000000000014
30
0
0
LWPOLYLINE
5
103
100
AcDbEntity
8
0
100
AcDbPolyline
90
4
70
1
43
0.0
10
100
20
100
10
-100
20
100
10
-100
20
-100
10
100
20
-100
0
LINE
5
104
100
AcDbEntity
8
1
100
AcDbLine
10
100
20
100
30
0
11
-100
21
-100
31
0
0
LINE
5
105
100
AcDbEntity
8
1
100
AcDbLine
10
-100
20
100
30
0
11
100
21
-100
31
0
0
LINE
5
106
100
AcDbEntity
8
1
100
AcDbLine
10
-100
20
-45
30
0
11
-54.999999999999986
21
-45
31
0
0
LINE
5
107
100
AcDbEntity
8
0
100
AcDbLine
10
-45
20
-54.999999999999986
30
0
11
-44.999999999999993
21
-100
31
0
0
ARC
5
108
100
AcDbEntity
8
0
100
AcDbCircle
10
-54.999999999999986
20
-54.999999999999986
30
0
40
9.9999999999999822
210
0
220
0
230
1
100
AcDbArc
50
0
51
90
0
LINE
5
109
100
AcDbEntity
8
0
100
AcDbLine
10
-54.999999999999986
20
-45
30
0
11
-54.999999999999986
21
-15
31
0
0
LINE
5
110
100
AcDbEntity
8
0
100
AcDbLine
10
-100
20
-45
30
0
11
-54.999999999999986
21
-45
31
0
0
LINE
5
111
100
AcDbEntity
8
1
100
AcDbLine
10
-100
20
-15
30
0
11
-54.999999999999986
21
-15
31
0
0
LINE
5
112
100
AcDbEntity
8
0
100
AcDbLine
10
-100
20
15
30
0
11
-65
21
15
31
0
0
LWPOLYLINE
5
113
100
AcDbEntity
8
0
100
AcDbPolyline
90
4
70
1
43
0.0
10
-95
20
-39
10
-85
20
-39
10
-85
20
-37
10
-95
20
-37
0
LWPOLYLINE
5
114
100
AcDbEntity
8
0
100
AcDbPolyline
90
4
70
1
43
0.0
10
-85
20
-33
10
-95
20
-33
10
-95
20
-35
10
-85
20
-35
0
LWPOLYLINE
5
115
100
AcDbEntity
8
0
100
AcDbPolyline
90
4
70
1
43
0.0
10
-85
20
-28.999999999999993
10
-95
20
-29
10
-95
20
-31
10
-85
20
-30.999999999999996
0
LWPOLYLINE
5
116
100
AcDbEntity
8
0
100
AcDbPolyline
90
4
70
1
43
0.0
10
-85
20
-24.999999999999996
10
-95
20
-24.999999999999996
10
-95
20
-26.999999999999996
10
-85
20
-26.999999999999996
0
LWPOLYLINE
5
117
100
AcDbEntity
8
0
100
AcDbPolyline
90
4
70
1
43
0.0
10
-85
20
-20.999999999999996
10
-95
20
-20.999999999999996
10
-95
20
-23
10
-85
20
-23
0
LWPOLYLINE
5
118
100
AcDbEntity
8
0
100
AcDbPolyline
90
4
70
1
43
0.0
10
-85
20
-16.999999999999996
10
-95
20
-16.999999999999996
10
-95
20
-19
10
-85
20
-19
0
LWPOLYLINE
5
119
100
AcDbEntity
8
0
100
AcDbPolyline
90
4
70
1
43
0.0
10
-85
20
-12.999999999999993
10
-95
20
-12.999999999999993
10
-95
20
-14.999999999999996
10
-85
20
-14.999999999999996
0
LWPOLYLINE
5
120
100
AcDbEntity
8
0
100
AcDbPolyline
90
4
70
1
43
0.0
10
-85
20
-8.9999999999999947
10
-95
20
-8.9999999999999947
10
-95
20
-10.999999999999996
10
-85
20
-10.999999999999996
0
LWPOLYLINE
5
121
100
AcDbEntity
8
0
100
AcDbPolyline
90
4
70
1
43
0.0
10
-85
20
-4.9999999999999956
10
-95
20
-4.9999999999999956
10
-95
20
-6.9999999999999973
10
-85
20
-6.9999999999999973
0
LWPOLYLINE
5
122
100
AcDbEntity
8
0
100
AcDbPolyline
90
4
70
1
43
0.0
10
-85
20
-0.99999999999999645
10
-95
20
-0.99999999999999645
10
-95
20
-2.9999999999999982
10
-85
20
-2.9999999999999982
0
LWPOLYLINE
5
123
100
AcDbEntity
8
0
100
AcDbPolyline
90
4
70
1
43
0.0
10
-85
20
3.0000000000000027
10
-95
20
3.0000000000000027
10
-95
20
1.0000000000000009
10
-85
20
1.0000000000000009
0
LWPOLYLINE
5
124
100
AcDbEntity
8
0
100
AcDbPolyline
90
4
70
1
43
0.0
10
-85
20
7.0000000000000062
10
-95
20
7.0000000000000062
10
-95
20
5.0000000000000044
10
-85
20
5.0000000000000044
0
LWPOLYLINE
5
125
100
AcDbEntity
8
0
100
AcDbPolyline
90
4
70
1
43
0.0
10
-85
20
11.000000000000011
10
-95
20
11.000000000000011
10
-95
20
9.0000000000000071
10
-85
20
9.0000000000000071
0
LWPOLYLINE
5
126
100
AcDbEntity
8
0
100
AcDbPolyline
90
4
70
1
43
0.0
10
-85
20
15.000000000000004
10
-95
20
15.000000000000004
10
-95
20
13.000000000000004
10
-85
20
13.000000000000004
0
LWPOLYLINE
5
127
100
AcDbEntity
8
0
100
AcDbPolyline
90
4
70
1
43
0.0
10
-85
20
19.000000000000007
10
-95
20
19.000000000000007
10
-95
20
17.000000000000007
10
-85
20
17.000000000000007
0
LWPOLYLINE
5
128
100
AcDbEntity
8
0
100
AcDbPolyline
90
4
70
1
43
0.0
10
-85
20
23.000000000000004
10
-95
20
23.000000000000004
10
-95
20
21
10
-85
20
21
0
LWPOLYLINE
5
129
100
AcDbEntity
8
0
100
AcDbPolyline
90
4
70
1
43
0.0
10
-85
20
27.000000000000007
10
-95
20
27.000000000000007
10
-95
20
25.000000000000004
10
-85
20
25.000000000000004
0
LWPOLYLINE
5
130
100
AcDbEntity
8
0
100
AcDbPolyline
90
4
70
1
43
0.0
10
-85
20
31.000000000000011
10
-95
20
31.000000000000011
10
-95
20
29.000000000000007
10
-85
20
29.000000000000007
0
LWPOLYLINE
5
131
100
AcDbEntity
8
0
100
AcDbPolyline
90
4
70
1
43
0.0
10
-85
20
35.000000000000007
10
-95
20
35.000000000000007
10
-95
20
33
10
-85
20
33
0
LWPOLYLINE
5
132
100
AcDbEntity
8
0
100
AcDbPolyline
90
4
70
1
43
0.0
10
-85
20
39.000000000000007
10
-95
20
39.000000000000007
10
-95
20
37.000000000000007
10
-85
20
37.000000000000007
0
LINE
5
133
100
AcDbEntity
8
0
100
AcDbLine
10
-65
20
15
30
0
11
-65
21
-15
31
0
0
LINE
5
134
100
AcDbEntity
8
0
100
AcDbLine
10
-65
20
-15
30
0
11
-54.999999999999986
21
-15
31
0
0
LINE
5
135
100
AcDbEntity
8
1
100
AcDbLine
10
14.999999999999979
20
-100
30
0
11
14.999999999999989
21
-54.999999999999986
31
0
0
LINE
5
136
100
AcDbEntity
8
0
100
AcDbLine
10
44.999999999999993
20
-54.999999999999993
30
0
11
14.999999999999989
21
-54.999999999999986
31
0
0
LINE
5
137
100
AcDbEntity
8
0
100
AcDbLine
10
14.999999999999986
20
-65
30
0
11
14.999999999999989
21
-54.999999999999986
31
0
0
LINE
5
138
100
AcDbEntity
8
0
100
AcDbLine
10
-15.000000000000014
20
-65
30
0
11
14.999999999999986
21
-65
31
0
0
LINE
5
139
100
AcDbEntity
8
0
100
AcDbLine
10
-15.000000000000021
20
-100
30
0
11
-15.000000000000014
21
-65
31
0
0
LINE
5
140
100
AcDbEntity
8
0
100
AcDbLine
10
54.999999999999972
20
-45.000000000000007
30
0
11
99.999999999999986
21
-45.000000000000014
31
0
0
ARC
5
141
100
AcDbEntity
8
0
100
AcDbCircle
10
54.999999999999972
20
-54.999999999999993
30
0
40
9.9999999999999822
210
0
220
-0
230
1
100
AcDbArc
50
90
51
180
0
LINE
5
142
100
AcDbEntity
8
1
100
AcDbLine
10
44.999999999999986
20
-100.00000000000001
30
0
11
44.999999999999993
21
-54.999999999999993
31
0
0
LWPOLYLINE
5
143
100
AcDbEntity
8
0
100
AcDbPolyline
90
4
70
1
43
0.0
10
-29.000000000000025
20
-85
10
-31.000000000000028
20
-85
10
-31.000000000000032
20
-95
10
-29.000000000000028
20
-95
0
LWPOLYLINE
5
144
100
AcDbEntity
8
0
100
AcDbPolyline
90
4
70
1
43
0.0
10
-23.000000000000025
20
-95
10
-21.000000000000021
20
-95
10
-21.000000000000018
20
-85
10
-23.000000000000021
20
-85
0
LWPOLYLINE
5
145
100
AcDbEntity
8
0
100
AcDbPolyline
90
4
70
1
43
0.0
10
30.999999999999979
20
-95
10
30.999999999999979
20
-85
10
28.999999999999979
20
-85
10
28.999999999999979
20
-95
0
LWPOLYLINE
5
146
100
AcDbEntity
8
0
100
AcDbPolyline
90
4
70
1
43
0.0
10
2.9999999999999769
20
-95
10
2.9999999999999796
20
-85
10
0.99999999999997757
20
-85
10
0.99999999999997535
20
-95
0
LWPOLYLINE
5
147
100
AcDbEntity
8
0
100
AcDbPolyline
90
4
70
1
43
0.0
10
-39.000000000000028
20
-85
10
-39.000000000000028
20
-95
10
-37.000000000000028
20
-95
10
-37.000000000000021
20
-85
0
LWPOLYLINE
5
148
100
AcDbEntity
8
0
100
AcDbPolyline
90
4
70
1
43
0.0
10
-11.000000000000032
20
-95
10
-9.0000000000000284
20
-95
10
-9.0000000000000266
20
-85
10
-11.000000000000028
20
-85
0
LWPOLYLINE
5
149
100
AcDbEntity
8
0
100
AcDbPolyline
90
4
70
1
43
0.0
10
-35.000000000000028
20
-95
10
-33.000000000000028
20
-95
10
-33.000000000000021
20
-85
10
-35.000000000000021
20
-85
0
LWPOLYLINE
5
150
100
AcDbEntity
8
0
100
AcDbPolyline
90
4
70
1
43
0.0
10
14.999999999999979
20
-85
10
12.999999999999975
20
-85
10
12.999999999999972
20
-95
10
14.999999999999973
20
-95
0
LWPOLYLINE
5
151
100
AcDbEntity
8
0
100
AcDbPolyline
90
4
70
1
43
0.0
10
-19.000000000000028
20
-95
10
-17.000000000000028
20
-95
10
-17.000000000000025
20
-85
10
-19.000000000000025
20
-85
0
LWPOLYLINE
5
152
100
AcDbEntity
8
0
100
AcDbPolyline
90
4
70
1
43
0.0
10
-7.0000000000000275
20
-95
10
-5.0000000000000258
20
-95
10
-5.0000000000000231
20
-85
10
-7.0000000000000249
20
-85
0
LWPOLYLINE
5
153
100
AcDbEntity
8
0
100
AcDbPolyline
90
4
70
1
43
0.0
10
20.999999999999975
20
-95
10
22.999999999999975
20
-95
10
22.999999999999979
20
-85
10
20.999999999999979
20
-85
0
LWPOLYLINE
5
154
100
AcDbEntity
8
0
100
AcDbPolyline
90
4
70
1
43
0.0
10
-3.000000000000024
20
-95
10
-1.000000000000022
20
-95
10
-1.0000000000000198
20
-85
10
-3.0000000000000213
20
-85
0
LWPOLYLINE
5
155
100
AcDbEntity
8
0
100
AcDbPolyline
90
4
70
1
43
0.0
10
26.999999999999975
20
-95
10
26.999999999999979
20
-85
10
24.999999999999979
20
-85
10
24.999999999999972
20
-95
0
LWPOLYLINE
5
156
100
AcDbEntity
8
0
100
AcDbPolyline
90
4
70
1
43
0.0
10
34.999999999999986
20
-85
10
32.999999999999979
20
-85
10
32.999999999999979
20
-95
10
34.999999999999979
20
-95
0
LWPOLYLINE
5
157
100
AcDbEntity
8
0
100
AcDbPolyline
90
4
70
1
43
0.0
10
18.999999999999982
20
-85
10
16.999999999999979
20
-85
10
16.999999999999975
20
-95
10
18.999999999999979
20
-95
0
LWPOLYLINE
5
158
100
AcDbEntity
8
0
100
AcDbPolyline
90
4
70
1
43
0.0
10
-25.000000000000021
20
-85
10
-27.000000000000025
20
-85
10
-27.000000000000028
20
-95
10
-25.000000000000028
20
-95
0
LWPOLYLINE
5
159
100
AcDbEntity
8
0
100
AcDbPolyline
90
4
70
1
43
0.0
10
6.9999999999999787
20
-85
10
4.9999999999999769
20
-85
10
4.9999999999999742
20
-95
10
6.999999999999976
20
-95
0
LWPOLYLINE
5
160
100
AcDbEntity
8
0
100
AcDbPolyline
90
4
70
1
43
0.0
10
-13.000000000000021
20
-85
10
-15.000000000000021
20
-85
10
-15.000000000000027
20
-95
10
-13.000000000000025
20
-95
0
LWPOLYLINE
5
161
100
AcDbEntity
8
0
100
AcDbPolyline
90
4
70
1
43
0.0
10
10.999999999999975
20
-95
10
10.999999999999979
20
-85
10
8.9999999999999751
20
-85
10
8.9999999999999734
20
-95
0
LWPOLYLINE
5
162
100
AcDbEntity
8
0
100
AcDbPolyline
90
4
70
1
43
0.0
10
38.999999999999979
20
-85
10
36.999999999999979
20
-85
10
36.999999999999972
20
-95
10
38.999999999999979
20
-95
0
LINE
5
163
100
AcDbEntity
8
1
100
AcDbLine
10
100
20
14.999999999999986
30
0
11
54.999999999999986
21
14.999999999999993
31
0
0
LINE
5
164
100
AcDbEntity
8
0
100
AcDbLine
10
54.999999999999993
20
44.999999999999993
30
0
11
54.999999999999986
21
14.999999999999993
31
0
0
LINE
5
165
100
AcDbEntity
8
0
100
AcDbLine
10
65
20
14.999999999999991
30
0
11
54.999999999999986
21
14.999999999999993
31
0
0
LINE
5
166
100
AcDbEntity
8
0
100
AcDbLine
10
65
20
-15.000000000000009
30
0
11
65
21
14.999999999999991
31
0
0
LINE
5
167
100
AcDbEntity
8
0
100
AcDbLine
10
100
20
-15.000000000000014
30
0
11
65
21
-15.000000000000009
31
0
0
LINE
5
168
100
AcDbEntity
8
0
100
AcDbLine
10
45.000000000000007
20
54.999999999999972
30
0
11
45
21
100
31
0
0
ARC
5
169
100
AcDbEntity
8
0
100
AcDbCircle
10
54.999999999999993
20
54.999999999999972
30
0
40
9.9999999999999822
210
0
220
0
230
1
100
AcDbArc
50
180
51
270
0
LINE
5
170
100
AcDbEntity
8
1
100
AcDbLine
10
100
20
44.999999999999993
30
0
11
54.999999999999993
21
44.999999999999993
31
0
0
LWPOLYLINE
5
171
100
AcDbEntity
8
0
100
AcDbPolyline
90
4
70
1
43
0.0
10
85
20
-29.000000000000018
10
85
20
-31.000000000000018
10
95
20
-31.000000000000021
10
95
20
-29.000000000000021
0
LWPOLYLINE
5
172
100
AcDbEntity
8
0
100
AcDbPolyline
90
4
70
1
43
0.0
10
95
20
-23.000000000000014
10
95
20
-21.000000000000014
10
85
20
-21.000000000000011
10
85
20
-23.000000000000011
0
LWPOLYLINE
5
173
100
AcDbEntity
8
0
100
AcDbPolyline
90
4
70
1
43
0.0
10
95
20
30.999999999999986
10
85
20
30.999999999999986
10
85
20
28.999999999999986
10
95
20
28.999999999999986
0
LWPOLYLINE
5
174
100
AcDbEntity
8
0
100
AcDbPolyline
90
4
70
1
43
0.0
10
95
20
2.9999999999999867
10
85
20
2.9999999999999876
10
85
20
0.99999999999998601
10
95
20
0.99999999999998479
0
LWPOLYLINE
5
175
100
AcDbEntity
8
0
100
AcDbPolyline
90
4
70
1
43
0.0
10
85
20
-39.000000000000014
10
95
20
-39.000000000000021
10
95
20
-37.000000000000021
10
85
20
-37.000000000000014
0
LWPOLYLINE
5
176
100
AcDbEntity
8
0
100
AcDbPolyline
90
4
70
1
43
0.0
10
95
20
-11.000000000000021
10
95
20
-9.0000000000000195
10
85
20
-9.0000000000000178
10
85
20
-11.000000000000021
0
LWPOLYLINE
5
177
100
AcDbEntity
8
0
100
AcDbPolyline
90
4
70
1
43
0.0
10
95
20
-35.000000000000014
10
95
20
-33.000000000000014
10
85
20
-33.000000000000014
10
85
20
-35.000000000000014
0
LWPOLYLINE
5
178
100
AcDbEntity
8
0
100
AcDbPolyline
90
4
70
1
43
0.0
10
85
20
14.999999999999984
10
85
20
12.999999999999982
10
95
20
12.999999999999982
10
95
20
14.999999999999984
0
LWPOLYLINE
5
179
100
AcDbEntity
8
0
100
AcDbPolyline
90
4
70
1
43
0.0
10
95
20
-19.000000000000018
10
95
20
-17.000000000000018
10
85
20
-17.000000000000018
10
85
20
-19.000000000000018
0
LWPOLYLINE
5
180
100
AcDbEntity
8
0
100
AcDbPolyline
90
4
70
1
43
0.0
10
95
20
-7.0000000000000178
10
95
20
-5.000000000000016
10
85
20
-5.0000000000000142
10
85
20
-7.000000000000016
0
LWPOLYLINE
5
181
100
AcDbEntity
8
0
100
AcDbPolyline
90
4
70
1
43
0.0
10
95
20
20.999999999999982
10
95
20
22.999999999999986
10
85
20
22.999999999999989
10
85
20
20.999999999999986
0
LWPOLYLINE
5
182
100
AcDbEntity
8
0
100
AcDbPolyline
90
4
70
1
43
0.0
10
95
20
-3.0000000000000142
10
95
20
-1.0000000000000124
10
85
20
-1.0000000000000113
10
85
20
-3.0000000000000133
0
LWPOLYLINE
5
183
100
AcDbEntity
8
0
100
AcDbPolyline
90
4
70
1
43
0.0
10
95
20
26.999999999999986
10
85
20
26.999999999999989
10
85
20
24.999999999999986
10
95
20
24.999999999999982
0
LWPOLYLINE
5
184
100
AcDbEntity
8
0
100
AcDbPolyline
90
4
70
1
43
0.0
10
85
20
34.999999999999993
10
85
20
32.999999999999986
10
95
20
32.999999999999986
10
95
20
34.999999999999986
0
LWPOLYLINE
5
185
100
AcDbEntity
8
0
100
AcDbPolyline
90
4
70
1
43
0.0
10
85
20
18.999999999999989
10
85
20
16.999999999999986
10
95
20
16.999999999999986
10
95
20
18.999999999999989
0
LWPOLYLINE
5
186
100
AcDbEntity
8
0
100
AcDbPolyline
90
4
70
1
43
0.0
10
85
20
-25.000000000000014
10
85
20
-27.000000000000014
10
95
20
-27.000000000000021
10
95
20
-25.000000000000018
0
LWPOLYLINE
5
187
100
AcDbEntity
8
0
100
AcDbPolyline
90
4
70
1
43
0.0
10
85
20
6.9999999999999876
10
85
20
4.9999999999999849
10
95
20
4.999999999999984
10
95
20
6.9999999999999858
0
LWPOLYLINE
5
188
100
AcDbEntity
8
0
100
AcDbPolyline
90
4
70
1
43
0.0
10
85
20
-13.000000000000014
10
85
20
-15.000000000000016
10
95
20
-15.000000000000016
10
95
20
-13.000000000000014
0
LWPOLYLINE
5
189
100
AcDbEntity
8
0
100
AcDbPolyline
90
4
70
1
43
0.0
10
95
20
10.999999999999986
10
85
20
10.999999999999986
10
85
20
8.999999999999984
10
95
20
8.999999999999984
0
LWPOLYLINE
5
190
100
AcDbEntity
8
0
100
AcDbPolyline
90
4
70
1
43
0.0
10
85
20
38.999999999999993
10
85
20
36.999999999999986
10
95
20
36.999999999999986
10
95
20
38.999999999999986
0
LINE
5
191
100
AcDbEntity
8
1
100
AcDbLine
10
-14.999999999999979
20
100
30
0
11
-14.999999999999989
21
54.999999999999986
31
0
0
LINE
5
192
100
AcDbEntity
8
0
100
AcDbLine
10
-44.999999999999993
20
54.999999999999993
30
0
11
-14.999999999999989
21
54.999999999999986
31
0
0
LINE
5
193
100
AcDbEntity
8
0
100
AcDbLine
10
-14.999999999999986
20
65
30
0
11
-14.999999999999989
21
54.999999999999986
31
0
0
LINE
5
194
100
AcDbEntity
8
0
100
AcDbLine
10
15.000000000000014
20
65
30
0
11
-14.999999999999986
21
65
31
0
0
LINE
5
195
100
AcDbEntity
8
0
100
AcDbLine
10
15.000000000000021
20
100
30
0
11
15.000000000000014
21
65
31
0
0
LINE
5
196
100
AcDbEntity
8
0
100
AcDbLine
10
-54.999999999999972
20
45.000000000000007
30
0
11
-99.999999999999986
21
45.000000000000014
31
0
0
ARC
5
197
100
AcDbEntity
8
0
100
AcDbCircle
10
-54.999999999999972
20
54.999999999999993
30
0
40
9.9999999999999822
210
0
220
0
230
1
100
AcDbArc
50
-90
51
0
0
LINE
5
198
100
AcDbEntity
8
1
100
AcDbLine
10
-44.999999999999986
20
100.00000000000001
30
0
11
-44.999999999999993
21
54.999999999999993
31
0
0
LWPOLYLINE
5
199
100
AcDbEntity
8
0
100
AcDbPolyline
90
4
70
1
43
0.0
10
29.000000000000025
20
85
10
31.000000000000028
20
85
10
31.000000000000032
20
95
10
29.000000000000028
20
95
0
LWPOLYLINE
5
200
100
AcDbEntity
8
0
100
AcDbPolyline
90
4
70
1
43
0.0
10
23.000000000000025
20
95
10
21.000000000000021
20
95
10
21.000000000000018
20
85
10
23.000000000000021
20
85
0
LWPOLYLINE
5
201
100
AcDbEntity
8
0
100
AcDbPolyline
90
4
70
1
43
0.0
10
-30.999999999999979
20
95
10
-30.999999999999979
20
85
10
-28.999999999999979
20
85
10
-28.999999999999979
20
95
0
LWPOLYLINE
5
202
100
AcDbEntity
8
0
100
AcDbPolyline
90
4
70
1
43
0.0
10
-2.9999999999999769
20
95
10
-2.9999999999999796
20
85
10
-0.99999999999997757
20
85
10
-0.99999999999997535
20
95
0
LWPOLYLINE
5
203
100
AcDbEntity
8
0
100
AcDbPolyline
90
4
70
1
43
0.0
10
39.000000000000028
20
85
10
39.000000000000028
20
95
10
37.000000000000028
20
95
10
37.000000000000021
20
85
0
LWPOLYLINE
5
204
100
AcDbEntity
8
0
100
AcDbPolyline
90
4
70
1
43
0.0
10
11.000000000000032
20
95
10
9.0000000000000284
20
95
10
9.0000000000000266
20
85
10
11.000000000000028
20
85
0
LWPOLYLINE
5
205
100
AcDbEntity
8
0
100
AcDbPolyline
90
4
70
1
43
0.0
10
35.000000000000028
20
95
10
33.000000000000028
20
95
10
33.000000000000021
20
85
10
35.000000000000021
20
85
0
LWPOLYLINE
5
206
100
AcDbEntity
8
0
100
AcDbPolyline
90
4
70
1
43
0.0
10
-14.999999999999979
20
85
10
-12.999999999999975
20
85
10
-12.999999999999972
20
95
10
-14.999999999999973
20
95
0
LWPOLYLINE
5
207
100
AcDbEntity
8
0
100
AcDbPolyline
90
4
70
1
43
0.0
10
19.000000000000028
20
95
10
17.000000000000028
20
95
10
17.000000000000025
20
85
10
19.000000000000025
20
85
0
LWPOLYLINE
5
208
100
AcDbEntity
8
0
100
AcDbPolyline
90
4
70
1
43
0.0
10
7.0000000000000275
20
95
10
5.0000000000000258
20
95
10
5.0000000000000231
20
85
10
7.0000000000000249
20
85
0
LWPOLYLINE
5
209
100
AcDbEntity
8
0
100
AcDbPolyline
90
4
70
1
43
0.0
10
-20.999999999999975
20
95
10
-22.999999999999975
20
95
10
-22.999999999999979
20
85
10
-20.999999999999979
20
85
0
LWPOLYLINE
5
210
100
AcDbEntity
8
0
100
AcDbPolyline
90
4
70
1
43
0.0
10
3.000000000000024
20
95
10
1.000000000000022
20
95
10
1.0000000000000198
20
85
10
3.0000000000000213
20
85
0
LWPOLYLINE
5
211
100
AcDbEntity
8
0
100
AcDbPolyline
90
4
70
1
43
0.0
10
-26.999999999999975
20
95
10
-26.999999999999979
20
85
10
-24.999999999999979
20
85
10
-24.999999999999972
20
95
0
LWPOLYLINE
5
212
100
AcDbEntity
8
0
100
AcDbPolyline
90
4
70
1
43
0.0
10
-34.999999999999986
20
85
10
-32.999999999999979
20
85
10
-32.999999999999979
20
95
10
-34.999999999999979
20
95
0
LWPOLYLINE
5
213
100
AcDbEntity
8
0
100
AcDbPolyline
90
4
70
1
43
0.0
10
-18.999999999999982
20
85
10
-16.999999999999979
20
85
10
-16.999999999999975
20
95
10
-18.999999999999979
20
95
0
LWPOLYLINE
5
214
100
AcDbEntity
8
0
100
AcDbPolyline
90
4
70
1
43
0.0
10
25.000000000000021
20
85
10
27.000000000000025
20
85
10
27.000000000000028
20
95
10
25.000000000000028
20
95
0
LWPOLYLINE
5
215
100
AcDbEntity
8
0
100
AcDbPolyline
90
4
70
1
43
0.0
10
-6.9999999999999787
20
85
10
-4.9999999999999769
20
85
10
-4.9999999999999742
20
95
10
-6.999999999999976
20
95
0
LWPOLYLINE
5
216
100
AcDbEntity
8
0
100
AcDbPolyline
90
4
70
1
43
0.0
10
13.000000000000021
20
85
10
15.000000000000021
20
85
10
15.000000000000027
20
95
10
13.000000000000025
20
95
0
LWPOLYLINE
5
217
100
AcDbEntity
8
0
100
AcDbPolyline
90
4
70
1
43
0.0
10
-10.999999999999975
20
95
10
-10.999999999999979
20
85
10
-8.9999999999999751
20
85
10
-8.9999999999999734
20
95
0
LWPOLYLINE
5
218
100
AcDbEntity
8
0
100
AcDbPolyline
90
4
70
1
43
0.0
10
-38.999999999999979
20
85
10
-36.999999999999979
20
85
10
-36.999999999999972
20
95
10
-38.999999999999979
20
95
0
LINE
5
219
100
AcDbEntity
8
0
100
AcDbLine
10
44.999999999999986
20
-100.00000000000001
30
0
11
44.999999999999993
21
-54.999999999999993
31
0
0
LINE
5
220
100
AcDbEntity
8
0
100
AcDbLine
10
100
20
44.999999999999993
30
0
11
54.999999999999993
21
44.999999999999993
31
0
0
LINE
5
221
100
AcDbEntity
8
0
100
AcDbLine
10
-44.999999999999986
20
100.00000000000001
30
0
11
-44.999999999999993
21
54.999999999999993
31
0
0
LINE
5
222
100
AcDbEntity
8
1
100
AcDbLine
10
-99.999999999999986
20
45.000000000000014
30
0
11
-44.999999999999986
21
100.00000000000001
31
0
0
LINE
5
223
100
AcDbEntity
8
1
100
AcDbLine
10
-81.249999999999972
20
66.250000000000028
30
0
11
-63.750000000000007
21
66.250000000000028
31
0
0
LINE
5
224
100
AcDbEntity
8
1
100
AcDbLine
10
-63.750000000000007
20
66.250000000000028
30
0
11
-63.750000000000007
21
78.750000000000014
31
0
0
LINE
5
225
100
AcDbEntity
8
1
100
AcDbLine
10
-63.750000000000007
20
78.750000000000014
30
0
11
-81.249999999999972
21
78.750000000000014
31
0
0
LINE
5
226
100
AcDbEntity
8
1
100
AcDbLine
10
-81.249999999999972
20
78.750000000000014
30
0
11
-81.249999999999972
21
66.250000000000028
31
0
0
LINE
5
227
100
AcDbEntity
8
0
100
AcDbLine
10
-76.831514188088448
20
67.500000000000014
30
0
11
-80.706002698279889
21
77.500000000000014
31
0
0
LINE
5
228
100
AcDbEntity
8
0
100
AcDbLine
10
-80.706002698279889
20
77.500000000000014
30
0
11
-79.273533471859963
21
77.500000000000014
31
0
0
LINE
5
229
100
AcDbEntity
8
0
100
AcDbLine
10
-79.273533471859963
20
77.500000000000014
30
0
11
-76.674624928273232
21
70.235334634780898
31
0
0
SPLINE
5
230
100
AcDbEntity
8
0
100
AcDbSpline
70
0
71
2
72
6
73
3
74
0
42
0.000000001
43
0.0000000001
44
0.0000000001
40
0
40
0
40
0
40
1
40
1
40
1
10
-76.674624928273232
20
70.235334634780898
30
0
10
-76.360845812596352
20
69.362210035324111
30
0
10
-76.149386116303475
20
68.598226308822646
30
0
0
SPLINE
5
231
100
AcDbEntity
8
0
100
AcDbSpline
70
0
71
2
72
6
73
3
74
0
42
0.000000001
43
0.0000000001
44
0.0000000001
40
0
40
0
40
0
40
1
40
1
40
1
10
-76.149386116303475
20
68.598226308822646
30
0
10
-75.917462059296639
20
69.416780471801772
30
0
10
-75.610504695214303
20
70.235334634780898
30
0
0
LINE
5
232
100
AcDbEntity
8
0
100
AcDbLine
10
-75.610504695214303
20
70.235334634780898
30
0
11
-72.909277030266793
21
77.500000000000014
31
0
0
LINE
5
233
100
AcDbEntity
8
0
100
AcDbLine
10
-72.909277030266793
20
77.500000000000014
30
0
11
-71.558663197793038
21
77.500000000000014
31
0
0
LINE
5
234
100
AcDbEntity
8
0
100
AcDbLine
10
-71.558663197793038
20
77.500000000000014
30
0
11
-75.474079200066598
21
67.500000000000014
31
0
0
LINE
5
235
100
AcDbEntity
8
0
100
AcDbLine
10
-75.474079200066598
20
67.500000000000014
30
0
11
-76.831514188088448
21
67.500000000000014
31
0
0
SPLINE
5
236
100
AcDbEntity
8
0
100
AcDbSpline
70
0
71
2
72
6
73
3
74
0
42
0.000000001
43
0.0000000001
44
0.0000000001
40
0
40
0
40
0
40
1
40
1
40
1
10
-68.980218120850594
20
72.922919392585769
30
0
10
-69.744201847352059
20
73.202592134475722
30
0
10
-70.112550207413705
20
73.72100949287416
30
0
0
SPLINE
5
237
100
AcDbEntity
8
0
100
AcDbSpline
70
0
71
2
72
6
73
3
74
0
42
0.000000001
43
0.0000000001
44
0.0000000001
40
0
40
0
40
0
40
1
40
1
40
1
10
-70.112550207413705
20
73.72100949287416
30
0
10
-70.480899759568246
20
74.239426851272597
30
0
10
-70.480899759568246
20
74.96248304843904
30
0
0
SPLINE
5
238
100
AcDbEntity
8
0
100
AcDbSpline
70
0
71
2
72
6
73
3
74
0
42
0.000000001
43
0.0000000001
44
0.0000000001
40
0
40
0
40
0
40
1
40
1
40
1
10
-70.480899759568246
20
74.96248304843904
30
0
10
-70.480899759568246
20
76.053888201713576
30
0
10
-69.696452566422494
20
76.797407865524306
30
0
0
SPLINE
5
239
100
AcDbEntity
8
0
100
AcDbSpline
70
0
71
2
72
6
73
3
74
0
42
0.000000001
43
0.0000000001
44
0.0000000001
40
0
40
0
40
0
40
1
40
1
40
1
10
-69.696452566422494
20
76.797407865524306
30
0
10
-68.912005373276742
20
77.540928125381484
30
0
10
-67.609139629639657
20
77.540928125381484
30
0
0
SPLINE
5
240
100
AcDbEntity
8
0
100
AcDbSpline
70
0
71
2
72
6
73
3
74
0
42
0.000000001
43
0.0000000001
44
0.0000000001
40
0
40
0
40
0
40
1
40
1
40
1
10
-67.609139629639657
20
77.540928125381484
30
0
10
-66.299453922547372
20
77.540928125381484
30
0
10
-65.501364418305428
20
76.776944398880019
30
0
0
SPLINE
5
241
100
AcDbEntity
8
0
100
AcDbSpline
70
0
71
2
72
6
73
3
74
0
42
0.000000001
43
0.0000000001
44
0.0000000001
40
0
40
0
40
0
40
1
40
1
40
1
10
-65.501364418305428
20
76.776944398880019
30
0
10
-64.703273721970589
20
76.01978182792665
30
0
10
-64.703273721970589
20
74.928376674652114
30
0
0
SPLINE
5
242
100
AcDbEntity
8
0
100
AcDbSpline
70
0
71
2
72
6
73
3
74
0
42
0.000000001
43
0.0000000001
44
0.0000000001
40
0
40
0
40
0
40
1
40
1
40
1
10
-64.703273721970589
20
74.928376674652114
30
0
10
-64.703273721970589
20
74.232605695724502
30
0
10
-65.07162327412513
20
73.714188337326064
30
0
0
SPLINE
5
243
100
AcDbEntity
8
0
100
AcDbSpline
70
0
71
2
72
6
73
3
74
0
42
0.000000001
43
0.0000000001
44
0.0000000001
40
0
40
0
40
0
40
1
40
1
40
1
10
-65.07162327412513
20
73.714188337326064
30
0
10
-65.43315047863868
20
73.202592134475722
30
0
10
-66.176670738495858
20
72.922919392585769
30
0
0
SPLINE
5
244
100
AcDbEntity
8
0
100
AcDbSpline
70
0
71
2
72
6
73
3
74
0
42
0.000000001
43
0.0000000001
44
0.0000000001
40
0
40
0
40
0
40
1
40
1
40
1
10
-66.176670738495858
20
72.922919392585769
30
0
10
-65.255798050202401
20
72.622783184051528
30
0
10
-64.778307625092538
20
71.954297423362746
30
0
0
SPLINE
5
245
100
AcDbEntity
8
0
100
AcDbSpline
70
0
71
2
72
6
73
3
74
0
42
0.000000001
43
0.0000000001
44
0.0000000001
40
0
40
0
40
0
40
1
40
1
40
1
10
-64.778307625092538
20
71.954297423362746
30
0
10
-64.293997236527474
20
71.285811662673964
30
0
10
-64.293997236527474
20
70.358117818832412
30
0
0
SPLINE
5
246
100
AcDbEntity
8
0
100
AcDbSpline
70
0
71
2
72
6
73
3
74
0
42
0.000000001
43
0.0000000001
44
0.0000000001
40
0
40
0
40
0
40
1
40
1
40
1
10
-64.293997236527474
20
70.358117818832412
30
0
10
-64.293997236527474
20
69.075716733932509
30
0
10
-65.20122761372474
20
68.202592134475722
30
0
0
SPLINE
5
247
100
AcDbEntity
8
0
100
AcDbSpline
70
0
71
2
72
6
73
3
74
0
42
0.000000001
43
0.0000000001
44
0.0000000001
40
0
40
0
40
0
40
1
40
1
40
1
10
-65.20122761372474
20
68.202592134475722
30
0
10
-66.108457990922005
20
67.329467535018935
30
0
10
-67.58867616299537
20
67.329467535018935
30
0
0
SPLINE
5
248
100
AcDbEntity
8
0
100
AcDbSpline
70
0
71
2
72
6
73
3
74
0
42
0.000000001
43
0.0000000001
44
0.0000000001
40
0
40
0
40
0
40
1
40
1
40
1
10
-67.58867616299537
20
67.329467535018935
30
0
10
-69.068894335068734
20
67.329467535018935
30
0
10
-69.976124712266
20
68.202592134475722
30
0
0
SPLINE
5
249
100
AcDbEntity
8
0
100
AcDbSpline
70
0
71
2
72
6
73
3
74
0
42
0.000000001
43
0.0000000001
44
0.0000000001
40
0
40
0
40
0
40
1
40
1
40
1
10
-69.976124712266
20
68.202592134475722
30
0
10
-70.883356281556161
20
69.082537889480605
30
0
10
-70.883356281556161
20
70.39222359657289
30
0
0
SPLINE
5
250
100
AcDbEntity
8
0
100
AcDbSpline
70
0
71
2
72
6
73
3
74
0
42
0.000000001
43
0.0000000001
44
0.0000000001
40
0
40
0
40
0
40
1
40
1
40
1
10
-70.883356281556161
20
70.39222359657289
30
0
10
-70.883356281556161
20
71.367666721344008
30
0
10
-70.392223545350106
20
72.022510170936599
30
0
0
SPLINE
5
251
100
AcDbEntity
8
0
100
AcDbSpline
70
0
71
2
72
6
73
3
74
0
42
0.000000001
43
0.0000000001
44
0.0000000001
40
0
40
0
40
0
40
1
40
1
40
1
10
-70.392223545350106
20
72.022510170936599
30
0
10
-69.894269653595956
20
72.684174776077285
30
0
10
-68.980218120850594
20
72.922919392585769
30
0
0
SPLINE
5
252
100
AcDbEntity
8
0
100
AcDbSpline
70
0
71
2
72
6
73
3
74
0
42
0.000000001
43
0.0000000001
44
0.0000000001
40
0
40
0
40
0
40
1
40
1
40
1
10
-69.225784488953622
20
75.003410577774062
30
0
10
-69.225784488953622
20
74.293997287750258
30
0
10
-68.768758722580941
20
73.843792676925673
30
0
0
SPLINE
5
253
100
AcDbEntity
8
0
100
AcDbSpline
70
0
71
2
72
6
73
3
74
0
42
0.000000001
43
0.0000000001
44
0.0000000001
40
0
40
0
40
0
40
1
40
1
40
1
10
-68.768758722580941
20
73.843792676925673
30
0
10
-68.311731764115365
20
73.393588066101088
30
0
10
-67.581855007447274
20
73.393588066101088
30
0
0
SPLINE
5
254
100
AcDbEntity
8
0
100
AcDbSpline
70
0
71
2
72
6
73
3
74
0
42
0.000000001
43
0.0000000001
44
0.0000000001
40
0
40
0
40
0
40
1
40
1
40
1
10
-67.581855007447274
20
73.393588066101088
30
0
10
-66.87244171742347
20
73.393588066101088
30
0
10
-66.422237106598885
20
73.836971521377578
30
0
0
SPLINE
5
255
100
AcDbEntity
8
0
100
AcDbSpline
70
0
71
2
72
6
73
3
74
0
42
0.000000001
43
0.0000000001
44
0.0000000001
40
0
40
0
40
0
40
1
40
1
40
1
10
-66.422237106598885
20
73.836971521377578
30
0
10
-65.965211340226205
20
74.287176132202163
30
0
10
-65.965211340226205
20
74.93519783020021
30
0
0
SPLINE
5
256
100
AcDbEntity
8
0
100
AcDbSpline
70
0
71
2
72
6
73
3
74
0
42
0.000000001
43
0.0000000001
44
0.0000000001
40
0
40
0
40
0
40
1
40
1
40
1
10
-65.965211340226205
20
74.93519783020021
30
0
10
-65.965211340226205
20
75.610504746437087
30
0
10
-66.435879417695077
20
76.067530512809768
30
0
0
SPLINE
5
257
100
AcDbEntity
8
0
100
AcDbSpline
70
0
71
2
72
6
73
3
74
0
42
0.000000001
43
0.0000000001
44
0.0000000001
40
0
40
0
40
0
40
1
40
1
40
1
10
-66.435879417695077
20
76.067530512809768
30
0
10
-66.899726339615853
20
76.531378030776992
30
0
10
-67.595497318543465
20
76.531378030776992
30
0
0
SPLINE
5
258
100
AcDbEntity
8
0
100
AcDbSpline
70
0
71
2
72
6
73
3
74
0
42
0.000000001
43
0.0000000001
44
0.0000000001
40
0
40
0
40
0
40
1
40
1
40
1
10
-67.595497318543465
20
76.531378030776992
30
0
10
-68.298089453019173
20
76.531378030776992
30
0
10
-68.76193637493995
20
76.081173419952407
30
0
0
SPLINE
5
259
100
AcDbEntity
8
0
100
AcDbSpline
70
0
71
2
72
6
73
3
74
0
42
0.000000001
43
0.0000000001
44
0.0000000001
40
0
40
0
40
0
40
1
40
1
40
1
10
-68.76193637493995
20
76.081173419952407
30
0
10
-69.225784488953622
20
75.630968809127822
30
0
10
-69.225784488953622
20
75.003410577774062
30
0
0
SPLINE
5
260
100
AcDbEntity
8
0
100
AcDbSpline
70
0
71
2
72
6
73
3
74
0
42
0.000000001
43
0.0000000001
44
0.0000000001
40
0
40
0
40
0
40
1
40
1
40
1
10
-69.621418663300545
20
70.385402441024794
30
0
10
-69.621418663300545
20
69.860163927078261
30
0
10
-69.375852295197518
20
69.369031190872207
30
0
0
SPLINE
5
261
100
AcDbEntity
8
0
100
AcDbSpline
70
0
71
2
72
6
73
3
74
0
42
0.000000001
43
0.0000000001
44
0.0000000001
40
0
40
0
40
0
40
1
40
1
40
1
10
-69.375852295197518
20
69.369031190872207
30
0
10
-69.123464771546395
20
68.877898454666152
30
0
10
-68.63233203534034
20
68.605047464370742
30
0
0
SPLINE
5
262
100
AcDbEntity
8
0
100
AcDbSpline
70
0
71
2
72
6
73
3
74
0
42
0.000000001
43
0.0000000001
44
0.0000000001
40
0
40
0
40
0
40
1
40
1
40
1
10
-68.63233203534034
20
68.605047464370742
30
0
10
-68.141200491227181
20
68.339017629623427
30
0
10
-67.575033851899178
20
68.339017629623427
30
0
0
SPLINE
5
263
100
AcDbEntity
8
0
100
AcDbSpline
70
0
71
2
72
6
73
3
74
0
42
0.000000001
43
0.0000000001
44
0.0000000001
40
0
40
0
40
0
40
1
40
1
40
1
10
-67.575033851899178
20
68.339017629623427
30
0
10
-66.695088096894295
20
68.339017629623427
30
0
10
-66.122100302018197
20
68.90518426895143
30
0
0
SPLINE
5
264
100
AcDbEntity
8
0
100
AcDbSpline
70
0
71
2
72
6
73
3
74
0
42
0.000000001
43
0.0000000001
44
0.0000000001
40
0
40
0
40
0
40
1
40
1
40
1
10
-66.122100302018197
20
68.90518426895143
30
0
10
-65.549112507142098
20
69.471350908279433
30
0
10
-65.549112507142098
20
70.34447550773622
30
0
0
SPLINE
5
265
100
AcDbEntity
8
0
100
AcDbSpline
70
0
71
2
72
6
73
3
74
0
42
0.000000001
43
0.0000000001
44
0.0000000001
40
0
40
0
40
0
40
1
40
1
40
1
10
-65.549112507142098
20
70.34447550773622
30
0
10
-65.549112507142098
20
71.231241226196303
30
0
10
-66.142564960755379
20
71.811050176620498
30
0
0
SPLINE
5
266
100
AcDbEntity
8
0
100
AcDbSpline
70
0
71
2
72
6
73
3
74
0
42
0.000000001
43
0.0000000001
44
0.0000000001
40
0
40
0
40
0
40
1
40
1
40
1
10
-66.142564960755379
20
71.811050176620498
30
0
10
-66.729195066727669
20
72.390859127044692
30
0
10
-67.615961977280648
20
72.390859127044692
30
0
0
SPLINE
5
267
100
AcDbEntity
8
0
100
AcDbSpline
70
0
71
2
72
6
73
3
74
0
42
0.000000001
43
0.0000000001
44
0.0000000001
40
0
40
0
40
0
40
1
40
1
40
1
10
-67.615961977280648
20
72.390859127044692
30
0
10
-68.482264229096444
20
72.390859127044692
30
0
10
-69.055252023972542
20
71.817871928215041
30
0
0
SPLINE
5
268
100
AcDbEntity
8
0
100
AcDbSpline
70
0
71
2
72
6
73
3
74
0
42
0.000000001
43
0.0000000001
44
0.0000000001
40
0
40
0
40
0
40
1
40
1
40
1
10
-69.055252023972542
20
71.817871928215041
30
0
10
-69.621418663300545
20
71.24488472938539
30
0
10
-69.621418663300545
20
70.385402441024794
30
0
0
ENDSEC
0
SECTION
2
OBJECTS
0
DICTIONARY
5
C
100
AcDbDictionary
3
ACAD_GROUP
350
D
3
ACAD_MLINESTYLE
350
17
0
DICTIONARY
5
D
100
AcDbDictionary
0
DICTIONARY
5
1A
330
C
100
AcDbDictionary
0
DICTIONARY
5
17
100
AcDbDictionary
0
ENDSEC
0
EOF
